PathFileType	4	(X/Y/Z)	39_1_25_p0_0-210_filt_butterworth.trc
DataRate	CameraRate	NumFrames	NumMarkers	Units	OrigDataRate	OrigDataStartFrame	OrigNumFrames
40.0	40.0	6	27	m	40.0	52	210
Frame#	Time	RHip			RKnee			RAnkle			RBigToe			RSmallToe			RHeel			LHip			LKnee			LAnkle			LBigToe			LSmallToe			LHeel			Neck			Head			Nose			RShoulder			RElbow			RWrist			RThumb			RIndex			RPinky			LShoulder			LElbow			LWrist			LThumb			LIndex			LPinky			
		X1	Y1	Z1	X2	Y2	Z2	X3	Y3	Z3	X4	Y4	Z4	X5	Y5	Z5	X6	Y6	Z6	X7	Y7	Z7	X8	Y8	Z8	X9	Y9	Z9	X10	Y10	Z10	X11	Y11	Z11	X12	Y12	Z12	X13	Y13	Z13	X14	Y14	Z14	X15	Y15	Z15	X16	Y16	Z16	X17	Y17	Z17	X18	Y18	Z18	X19	Y19	Z19	X20	Y20	Z20	X21	Y21	Z21	X22	Y22	Z22	X23	Y23	Z23	X24	Y24	Z24	X25	Y25	Z25	X26	Y26	Z26	X27	Y27	Z27	
52	1.3	0.2737169161870137	0.6123025332692836	0.5313023326356419	0.2416192881216368	0.6744569367337718	0.9291434627353807	0.25261643412395546	0.7911104773508157	1.312600966532458	0.21917055391350188	0.6607807090411479	1.3605656765029497	0.28529201802881105	0.6551357830701838	1.353053858999911	0.238021016515915	0.8535359210556429	1.380185711870841	0.05259711212257247	0.6368778388678334	0.5359483079600306	0.0754215504003743	0.7281216360966982	0.9431331886887478	0.025335834235406085	0.8327750894293904	1.346395326701905	0.05384215955544526	0.6250178538628144	1.3347679946520339	-0.012498528155158124	0.695015998245079	1.353241396103479	0.03627320585416049	0.8573140915479008	1.3818045708788262	0.154367131469159	0.5562008620097512	-0.008174068733092467	0.13726049299927506	0.47496691501318333	-0.257155653726959	0.15963033701023996	0.3858158292046923	-0.10340190827532841	0.3285930698136301	0.5519324285844628	0.05592471560194286	0.39017054994997524	0.6392718072402407	0.3061119016509302	0.40398651957089826	0.5661764034430798	0.5646165297055885	0.33430714477237944	0.5557637385779599	0.6807236818943245	0.34860475514555045	0.5481667115423547	0.6927151186875458	0.38700223016423146	0.6204004177322756	0.6995860734185826	-0.0059991094523967805	0.5920185632299065	0.08166336049408669	-0.06347260845530657	0.5761874903273285	0.32725767871966815	-0.08935443014641173	0.5628236530277716	0.577680436486087	-0.02521390970015885	0.5106465596067988	0.6619866166549873	-0.04402050569092208	0.5223902449078994	0.7081335138597155	-0.10029503614381313	0.5625442848017248	0.7089138297242348
53	1.325	0.27847313661358725	0.6134932415061743	0.5344306357724808	0.2428952670478377	0.674796025655716	0.9290769726858765	0.25376788677081547	0.8095697329849088	1.3187117770832009	0.22150691184827312	0.66672898446115	1.3639052370020912	0.2838898427386326	0.6543719703584441	1.3520423650787776	0.23682743987085522	0.868731858731997	1.3793385479016065	0.0526446001796729	0.6379518170002816	0.5381695772476116	0.0759481085561356	0.7235770194066036	0.9442163431678707	0.025281724961435468	0.8329396145379331	1.346772067132572	0.05386339258290064	0.6317226375491267	1.3385548985674993	-0.012560680721999866	0.695052526330395	1.3557517972170128	0.0364188990600842	0.8589125217457791	1.3794917054161702	0.15876919990746607	0.5571070099342155	-0.00599055274658571	0.13959787552237124	0.4804757016466309	-0.25729624885295466	0.16245564441199317	0.39208641361532015	-0.10336033547303121	0.334289816468252	0.551879790080241	0.057781100778301286	0.39410607473012127	0.6390916730213312	0.30763453099022287	0.4070802279635562	0.5598732049279778	0.5638385954966718	0.3345503823621452	0.5564831309860756	0.6812929417012937	0.34839291998331046	0.540301517904481	0.6909977836732507	0.3880029702502499	0.6126542471793902	0.6979332284939919	-0.004285564162948602	0.5925369041277473	0.0818927239327053	-0.05843163813491018	0.5791573035177947	0.32888933051124575	-0.0871598042473109	0.5651849430319078	0.5785197667177782	-0.02334360945903904	0.5119549511582744	0.6643787279290383	-0.03865032316038361	0.5136720021546878	0.70603180707882	-0.09992680433662735	0.5682120537411485	0.7124561489624588
54	1.35	0.2821691104175071	0.6044013604040264	0.5349867406667644	0.2442175196286428	0.675865727855483	0.9294948296073788	0.25368972489306924	0.8125833146041032	1.320947657213809	0.22417921387465706	0.6693576981261852	1.3654899024088163	0.28396425341129333	0.6548779168481575	1.3515102194176583	0.2323862231667228	0.8786997347320604	1.3810029746515462	0.052834029273439796	0.6384439609058334	0.5392747474218288	0.07825326776378802	0.7177428258434275	0.9438477857010659	0.02529613666274334	0.8330273762820566	1.3466748954004708	0.055590633935276516	0.6370657686483555	1.3403975192616857	-0.012107450099944097	0.6956588480908743	1.3581219548432015	0.03667142675864091	0.8632850136921075	1.3781105345983367	0.1611330081734615	0.5581471818742587	-0.003291630676045983	0.14548565710258254	0.48476449420963774	-0.25722860773670025	0.16407969636628061	0.3959213637114935	-0.10328378583410672	0.33815966598870745	0.5557357490433457	0.05836007662622657	0.39722548381980893	0.6394970819828606	0.30748562118490047	0.4080667993776025	0.5565530046393328	0.5623216398366836	0.3355184402189043	0.5588814254196144	0.6811874067174137	0.34829308629006694	0.5382804341532647	0.6906191180975452	0.38899827810719817	0.6004715724802213	0.6957349347739233	-0.002120580037982785	0.593167544032382	0.08197338661697051	-0.055058809209186474	0.5868821327609192	0.33175122178884586	-0.08496944908190462	0.5683334244068128	0.577756490332319	-0.02133315094113217	0.5149973733575935	0.6651559019317439	-0.0350146702927768	0.5085645230451724	0.7062098628161062	-0.09908749937282729	0.5759300395400602	0.7169536839120714
55	1.375	0.2845733226445253	0.5932334907849912	0.5345092017213087	0.24422847265255848	0.6760148190851865	0.9291215029922604	0.25084483325807805	0.8021225180018287	1.3198180303660785	0.22292934724341196	0.6690303742342324	1.3654397678995487	0.2827103247425206	0.6598057978276526	1.3532481453027407	0.22600618394206626	0.8833471510773986	1.3879111234466304	0.054190397705231486	0.6377580510881573	0.5383333559606044	0.08240740137633817	0.7091671067439203	0.9400298458124154	0.025320237328490855	0.833059162962839	1.3464472589553405	0.05556492675563998	0.6406428058189443	1.3406187801766825	-0.011994397756845318	0.6958377794879016	1.3584014530240238	0.03779968982712763	0.8667352884339989	1.3781772037387194	0.16171680998162613	0.5581683026390271	-0.0028096360321348598	0.1524350132546461	0.48965689243924426	-0.2571327499805749	0.16588345396316378	0.3952359534160945	-0.10290771057419884	0.3396261596666691	0.5619811794026893	0.060240121456044	0.3993079544900884	0.6359712773385566	0.30794181025851214	0.4077110993374522	0.556543718001987	0.5624197775619086	0.33564950689244566	0.5493690615137201	0.6794321059691578	0.3479197977310781	0.5318976712257791	0.689621840282036	0.38985836297023535	0.5927105737794462	0.695303380599123	0.003343442832756445	0.5894197163848525	0.0819177800281415	-0.050398901108856725	0.5919939276194283	0.33379540759373993	-0.08032060452394302	0.5679600559875618	0.5771516215285405	-0.018739509132773467	0.5120600483767687	0.6648866068037942	-0.03040450485004473	0.5041632170067987	0.7069430358479196	-0.09615620535371043	0.5774391666524598	0.7187315871994251
56	1.4	0.2883660117043161	0.5898329537585719	0.5348690122724964	0.24385876261129827	0.6751221825736884	0.9292687645546347	0.24679208239769013	0.7920611861022387	1.31756600123345	0.22072397426470702	0.6673107177710683	1.3649705235523342	0.2794249884734728	0.6676586207342972	1.3566461769818372	0.21960516764014004	0.8836663528996349	1.3941960258568127	0.05696600015063136	0.6366294949749307	0.5378211406432569	0.08732715935949342	0.7020539143603391	0.9359495436567576	0.02532087294438891	0.8330721448888899	1.3462638478246103	0.052682748725435054	0.6436877059417928	1.3416256957540786	-0.012303909955023937	0.695668633118302	1.3581359063298168	0.03936034384629463	0.8651201754254421	1.37905438903991	0.16429338410820468	0.5547089545474124	-0.0038324171819616826	0.15784500821282196	0.4967135616386881	-0.2571152955921391	0.1707172224142402	0.39515888807376975	-0.10304863027615307	0.34157332271151647	0.566007878533676	0.06310358185338455	0.40325316703352526	0.6280741965775911	0.30983219255691813	0.4084463846062111	0.553122004656825	0.5646236331977654	0.33569582948396176	0.5319059787663486	0.6777273610077581	0.3475344667728859	0.5169395249321161	0.6874744552819558	0.39280741070955	0.583784816378111	0.695407992272531	0.012047896893463642	0.5799813239478587	0.08157658853411427	-0.044039075786029	0.6002303601989982	0.33553817302462124	-0.07114989632075988	0.5611803897137791	0.577056554761354	-0.01559535815715759	0.5061546842232716	0.6641529640698488	-0.026581391710689406	0.5013652488683558	0.7061059323565055	-0.0918436512779572	0.5719077347737967	0.717570615757379
57	1.425	0.29599001452081036	0.5913950320268113	0.5352950303015908	0.2449986240304847	0.6753748089871325	0.9317021916477911	0.24408541719939048	0.7899095703148644	1.315605134187495	0.22223071979140213	0.6671540986602652	1.3645994079700081	0.27733078448511317	0.6721466343511698	1.3592973339029082	0.21464199212999371	0.8795174491845277	1.3961075446600137	0.060565593934302914	0.6368198088088304	0.5397972158377327	0.09112467612917413	0.698032185530846	0.9344920405423085	0.025310701359595122	0.8331108538534757	1.3463153745128347	0.0502090892511145	0.6451552253949857	1.3418970110287798	-0.012333575723343516	0.695689067595379	1.3580961534834637	0.03990598052262	0.8618936810816037	1.3801703856385374	0.170492877290154	0.5492725873152466	-0.004349585812601627	0.16351420119421828	0.5021145074619354	-0.2569814204281772	0.17933184032190197	0.4024070280125622	-0.1049485133095259	0.3461408179611144	0.5670122560889937	0.06453223279513708	0.4107084790679164	0.6201298746936186	0.31112188727638035	0.4104303034624627	0.5458159134649927	0.5670374200753296	0.3362807397186322	0.5219557145738829	0.6786004357315214	0.3477711654387083	0.499928161974997	0.6861719004559554	0.3983231290609018	0.5671506907313115	0.694121256546934	0.023530638980558675	0.5729266922269076	0.08108584870600637	-0.03873797709870101	0.6200321763524239	0.3386093877735873	-0.05636091069074051	0.5501418930443248	0.5757476746919787	-0.013025915616629804	0.5095345666350384	0.665040680432132	-0.024884767909847276	0.5022760826262098	0.7039032235580647	-0.08515818142456923	0.5666134353346162	0.716304140117357
